<svg width="64" height="64" viewBox="0 0 64 64" fill="none" xmlns="http://www.w3.org/2000/svg">
  <rect width="64" height="64" rx="16" fill="#0A66C2"/>
  <path d="M20.168 24.416C17.8613 24.416 16 22.5333 16 20.232C16 17.9307 17.8613 16.048 20.168 16.048C22.4693 16.048 24.3307 17.9307 24.3307 20.232C24.3307 22.5333 22.4693 24.416 20.168 24.416ZM24.032 48H16.304V27.776H24.032V48ZM48 48H40.288V38.16C40.288 35.8133 40.2453 32.8053 37.0293 32.8053C33.7707 32.8053 33.2747 35.3493 33.2747 37.9893V48H25.568V27.776H32.9707V30.5387H33.0773C34.1067 28.5867 36.624 26.528 40.384 26.528C48.2027 26.528 48 31.6747 48 38.3573V48Z" fill="white"/>
</svg>
