<svg width="64" height="64" viewBox="0 0 64 64" fill="none" xmlns="http://www.w3.org/2000/svg">
  <rect width="64" height="64" rx="16" fill="#FF0000"/>
  <path d="M50.0944 23.3867C49.656 21.7347 48.3611 20.4398 46.7091 20.0013C43.704 19.2 31.9997 19.2 31.9997 19.2C31.9997 19.2 20.2955 19.2 17.2904 20.0013C15.6384 20.4398 14.3435 21.7347 13.9051 23.3867C13.1037 26.3918 13.1037 32.6667 13.1037 32.6667C13.1037 32.6667 13.1037 38.9416 13.9051 41.9467C14.3435 43.5987 15.6384 44.8936 17.2904 45.332C20.2955 46.1333 31.9997 46.1333 31.9997 46.1333C31.9997 46.1333 43.704 46.1333 46.7091 45.332C48.3611 44.8936 49.656 43.5987 50.0944 41.9467C50.8957 38.9416 50.8957 32.6667 50.8957 32.6667C50.8957 32.6667 50.8957 26.3918 50.0944 23.3867Z" fill="white" fill-opacity="0.18"/>
  <path d="M27.7334 40.3374V24.9956L41.0223 32.6665L27.7334 40.3374Z" fill="white"/>
</svg>
