<svg width="64" height="64" viewBox="0 0 64 64" fill="none" xmlns="http://www.w3.org/2000/svg">
  <circle cx="32" cy="32" r="32" fill="#25D366"/>
  <path d="M32.1981 16C23.4077 16 16.2676 23.0815 16.2676 31.8025C16.2676 34.9277 17.1778 37.8407 19.0284 40.3002L16.5859 48L24.5376 45.6603C26.8769 47.1114 29.6178 47.8856 32.1999 47.8856C40.9885 47.8856 48.1304 40.8041 48.1304 32.0831C48.1304 23.3621 40.9885 16.2806 32.1981 16.2806V16Z" fill="white"/>
  <path d="M41.7459 38.1924C41.3715 39.2371 39.5533 40.1808 38.7124 40.3044C37.9239 40.421 36.926 40.469 35.822 40.0309C35.1525 39.7653 34.294 39.4637 33.183 38.9872C28.4524 36.9608 25.3858 31.8785 25.1487 31.5564C24.9134 31.2344 23.2246 28.9927 23.2246 26.675C23.2246 24.3573 24.3861 23.2235 24.7941 22.8066C25.2022 22.3897 25.6834 22.2844 25.9766 22.2844C26.2699 22.2844 26.5649 22.2898 26.8167 22.3027C27.1332 22.3172 27.5583 22.1854 27.8084 22.7876C28.118 23.534 28.8636 25.7355 28.9926 26.0118C29.1216 26.2881 29.2079 26.6072 29.0142 26.9994C28.8204 27.3916 28.7193 27.5406 28.4405 27.8655C28.1635 28.1904 27.854 28.5924 27.597 28.8816C27.3401 29.1708 27.0733 29.4836 27.381 30.0122C27.6887 30.5409 28.7521 32.2708 30.3289 33.6774C32.3667 35.4958 34.0862 36.0574 34.6145 36.3212C35.1429 36.585 35.4559 36.5413 35.751 36.2172C36.046 35.893 37.0143 34.761 37.3531 34.2742C37.6919 33.7873 38.029 33.8654 38.5008 34.0407C38.9726 34.216 41.4919 35.4521 42.0021 35.713C42.5123 35.9738 42.8494 36.1056 42.9949 36.3321C43.1404 36.5585 43.1171 37.1474 41.7423 38.1906L41.7459 38.1924Z" fill="#25D366"/>
</svg>
